<?xml version="1.0" encoding="UTF-8" standalone="no"?>
<svg
   xmlns:dc="http://purl.org/dc/elements/1.1/"
   xmlns:cc="http://creativecommons.org/ns#"
   xmlns:rdf="http://www.w3.org/1999/02/22-rdf-syntax-ns#"
   xmlns:svg="http://www.w3.org/2000/svg"
   xmlns="http://www.w3.org/2000/svg"
   xmlns:xlink="http://www.w3.org/1999/xlink"
   id="svg8"
   version="1.1"
   viewBox="0 0 210 297"
   height="297mm"
   width="210mm">
  <defs
     id="defs2">
    <linearGradient
       id="linearGradient4528">
      <stop
         id="stop4524"
         offset="0"
         style="stop-color:#0ebebe;stop-opacity:1" />
      <stop
         id="stop4526"
         offset="1"
         style="stop-color:#000000;stop-opacity:0;" />
    </linearGradient>
    <linearGradient
       id="linearGradient4517">
      <stop
         style="stop-color:#ff5858;stop-opacity:1"
         offset="0"
         id="stop4513" />
      <stop
         style="stop-color:#ffff5d;stop-opacity:0.65909094"
         offset="1"
         id="stop4515" />
    </linearGradient>
    <linearGradient
       gradientTransform="matrix(1.0066372,0,0,0.9922296,-0.18564316,0.68657072)"
       spreadMethod="pad"
       gradientUnits="userSpaceOnUse"
       y2="147.32143"
       x2="111.125"
       y1="100.45238"
       x1="111.125"
       id="linearGradient4511"
       xlink:href="#linearGradient4517" />
    <linearGradient
       gradientTransform="matrix(0.99746582,0,0,1.0542655,-1.496014,-108.64449)"
       gradientUnits="userSpaceOnUse"
       y2="246.75333"
       x2="115.46043"
       y1="284.7056"
       x1="115.72771"
       id="linearGradient4534"
       xlink:href="#linearGradient4528" />
  </defs>
  <metadata
     id="metadata5">
    <rdf:RDF>
      <cc:Work
         rdf:about="">
        <dc:format>image/svg+xml</dc:format>
        <dc:type
           rdf:resource="http://purl.org/dc/dcmitype/StillImage" />
        <dc:title></dc:title>
      </cc:Work>
    </rdf:RDF>
  </metadata>
  <g
     id="layer1">
    <rect
       y="88.35714"
       x="27.970238"
       height="68.257126"
       width="171.97917"
       id="rect3682"
       style="fill:url(#linearGradient4511);fill-opacity:1;fill-rule:nonzero;stroke:none;stroke-width:0.26442653;stroke-opacity:1" />
    <path
       id="path4527"
       d="M 28.603691,157.1488 28.162296,94.409698 42.057708,109.91133 c 4.186435,-5.43448 8.372877,-10.86896 12.559315,-16.303441 4.80995,8.107181 9.619902,16.214351 14.429852,24.321531 3.562925,-5.52357 7.125853,-11.04715 10.688777,-16.57072 2.494044,5.07812 4.988109,10.15624 7.482136,15.23437 3.295706,-7.75082 6.591413,-15.50163 9.887121,-23.25245 2.494048,8.01808 4.988091,16.03617 7.482141,24.05425 1.42517,-2.85087 2.85035,-5.70175 4.27553,-8.55262 1.06887,2.93997 2.13774,5.87993 3.20661,8.8199 3.65199,-4.89995 7.304,-9.79988 10.956,-14.69983 3.83015,4.54359 7.66031,9.08716 11.49045,13.63075 2.85034,-1.24726 5.70068,-2.49453 8.55102,-3.74178 2.40498,3.02906 4.80995,6.05811 7.21492,9.08717 2.22684,-1.7818 4.45366,-3.5636 6.68049,-5.34539 0.51559,1.00172 1.05745,5.25947 1.55287,3.75848 1.08556,-3.92553 2.17115,-7.85105 3.25673,-11.77657 1.33611,3.91995 2.67219,7.83991 4.0083,11.75986 1.32632,-0.70305 2.63924,-3.53428 3.97488,-2.75621 1.35302,1.41862 2.66633,2.70115 2.76388,-0.18493 1.8511,-6.68135 3.70222,-13.36269 5.55332,-20.044039 1.95962,7.483549 3.91922,14.967089 5.87883,22.450639 2.04868,-3.74177 4.09737,-7.48355 6.14606,-11.22532 1.51424,3.11815 3.02849,6.23629 4.54273,9.35444 3.02848,-2.49452 0.97981,-5.2563 4.00829,-7.75082 2.27783,2.96671 0.76898,46.9702 0.76898,46.9702"
       style="opacity:0.25199998;fill:#000000;fill-opacity:1;stroke:#000000;stroke-width:0.26455855px;stroke-linecap:butt;stroke-linejoin:miter;stroke-opacity:1" />
    <path
       id="path4507"
       d="m 28.459735,168.55659 -0.442052,-55.96977 16.057072,21.3026 8.563771,-9.99918 6.422827,11.73818 7.4933,-13.04243 8.296153,17.03327 17.662777,-23.57964 c 3.068069,-2.71205 12.746877,20.40077 12.578027,18.02422 l 11.77519,-10.83657 19.53612,10.56932 19.26847,-7.69703 15.25423,8.22461 12.31006,-7.39071 9.09936,7.82546 7.22569,-16.95514 -0.0331,50.75281 v 0"
       style="opacity:0.34200003;fill:#000000;fill-opacity:1;stroke:#000000;stroke-width:0.33766729px;stroke-linecap:butt;stroke-linejoin:miter;stroke-opacity:1" />
    <path
       id="path4527-7"
       d="m 28.667589,191.70494 7.812561,-16.50947 8.675042,4.37716 10.192316,-9.5525 6.973691,8.10516 8.217163,-5.95295 5.461999,5.66348 9.655884,-9.26304 8.891652,13.75158 8.265493,-11.58481 4.69777,6.22786 2.5297,-5.47333 7.68863,9.89164 8.0275,-6.22184 4.20967,2.31825 7.62913,-7.3446 61.75202,0.002 v 0 c -0.38413,-6.47809 0.58074,-20.48884 -4.02327,-17.25209 -1.51991,-3.08618 -3.03983,-6.17234 -4.55973,-9.25852 -2.05636,3.7034 -4.11271,7.40682 -6.16906,11.11022 -1.96693,-7.40682 -3.93386,-14.81364 -5.90079,-22.22046 -1.85805,6.61285 -3.71608,13.22569 -5.57411,19.83854 -0.098,2.85649 -1.41613,1.58711 -2.7742,0.18303 -1.34065,-0.7701 -2.65847,2.03211 -3.98977,2.72795 -1.34109,-3.87976 -2.68218,-7.75953 -4.02329,-11.63928 -1.08963,3.88526 -2.17929,7.77053 -3.26891,11.65582 -0.49727,1.4856 -1.04114,-2.7285 -1.55867,-3.71995 -2.23513,1.76352 -4.47029,3.52705 -6.70545,5.29059 -2.41397,-2.998 -4.82795,-5.996 -7.24192,-8.994 -2.861,1.23446 -5.72201,2.46894 -8.583,3.70341 -3.84447,-4.49701 -7.68894,-8.99398 -11.53342,-13.49099 -3.66566,4.84971 -7.33133,9.6994 -10.99697,14.54911 -1.07286,-2.90982 -2.14574,-5.81964 -3.21863,-8.72947 -1.4305,2.82164 -2.861,5.64329 -4.29151,8.46493 -2.50336,-7.93587 -5.006723,-15.87175 -7.510112,-23.80762 l -9.924101,23.01411 c -2.503349,-5.02607 -5.006747,-10.05212 -7.51012,-15.07817 -3.576246,5.46693 -7.152498,10.93388 -10.728748,16.40081 -4.827941,-8.02405 -9.65588,-16.0481 -14.483819,-24.07216 -4.202096,5.37876 -8.404194,10.75753 -12.606288,16.13629 l -13.947378,-15.34269 0.443045,62.09584"
       style="opacity:0.34200003;fill:#000000;fill-opacity:1;stroke:#000000;stroke-width:0.2636905px;stroke-linecap:butt;stroke-linejoin:miter;stroke-opacity:1" />
    <rect
       ry="0.56354606"
       y="88.35714"
       x="27.970238"
       height="103.84973"
       width="171.97917"
       id="rect4522"
       style="opacity:0.34200003;fill:url(#linearGradient4534);fill-opacity:1;fill-rule:nonzero;stroke:none;stroke-width:0.27132291;stroke-opacity:1" />
  </g>
</svg>
